<?xml version="1.0" encoding="UTF-8"?>
<svg id="_图层_1" data-name="图层_1" xmlns="http://www.w3.org/2000/svg" version="1.1" viewBox="0 0 128 128">
  <!-- Generator: Adobe Illustrator 29.0.1, SVG Export Plug-In . SVG Version: 2.1.0 Build 192)  -->
  <defs>
    <style>
      .st0 {
        fill: #9cd83c;
      }
    </style>
  </defs>
  <path d="M93.03,11.67c-11.59-.91-20.82,12.52-24.69,21.81-.79,1.9-1.86,4.28-2.97,7.2-.47,1.25-2.24,1.25-2.72,0-1.11-2.92-2.18-5.3-2.97-7.2-3.86-9.29-13.1-22.72-24.69-21.81-18.27,1.44-24.54,25.52-24.54,45.6v42.52h.01c.25,10.56,5.06,16.59,15.54,16.59,1.28,0,2.47-.09,3.6-.27,4.16-.39,7.27-1.89,9.44-4.37,2.54,3.02,6.44,4.64,11.87,4.64,1.28,0,2.47-.09,3.6-.27,4.16-.39,7.27-1.89,9.44-4.37,2.54,3.02,6.44,4.64,11.87,4.64,1.28,0,2.47-.09,3.6-.27,4.16-.39,7.27-1.89,9.44-4.37,2.54,3.02,6.44,4.64,11.87,4.64,1.28,0,2.47-.09,3.6-.27,8.85-.83,12.97-6.66,13.25-16.32h.02v-42.52c0-20.08-6.27-44.17-24.54-45.6Z"/>
  <path class="st0" d="M55.55,84.77c-.18,0-.35,0-.53-.01-3.59-.19-6.62-1.9-8.53-4.81-1.43-2.18-2.21-5.03-2.21-8.01v-3.46h6.93v3.46c0,1.63.39,3.17,1.08,4.22.7,1.07,1.69,1.61,3.09,1.68,1.86.1,3.63-1.64,4.37-2.84.07-.12.15-.24.24-.38.19-.31.39-.62.59-.98.68-1.21,1.99-1.96,3.43-1.96s2.75.75,3.43,1.96c.2.36.4.67.59.98.09.14.17.26.24.38.73,1.19,2.5,2.93,4.37,2.84,1.41-.07,2.39-.61,3.09-1.68.69-1.05,1.08-2.59,1.08-4.22v-3.46h6.93v3.46c0,6.1-3.32,12.43-10.74,12.82-.18,0-.36.01-.53.01-3.51,0-6.47-1.85-8.47-4-2,2.15-4.96,4-8.47,4Z"/>
  <path class="st0" d="M121.04,85.06v-27.79c0-11.78-2.03-22.86-5.71-31.19-4.83-10.93-12.45-17.11-22.02-17.86-6.19-.49-12.42,2.33-18.01,8.13-4,4.16-7.7,9.92-10.15,15.8-.21.52-.45,1.07-.7,1.66-.14.32-.28.66-.43,1-.15-.34-.29-.68-.43-1-.25-.59-.49-1.14-.7-1.66-2.45-5.88-6.15-11.64-10.15-15.8-5.59-5.81-11.82-8.62-18.01-8.13-9.57.75-17.19,6.93-22.02,17.86-3.68,8.33-5.71,19.41-5.71,31.19v42.59c.15,6.22,1.78,11.1,4.83,14.49,3.27,3.64,8.04,5.48,14.18,5.48,1.38,0,2.73-.1,4.02-.29,3.52-.35,6.52-1.4,8.97-3.13,3.07,2.27,7.06,3.42,11.91,3.42,1.38,0,2.73-.1,4.02-.29,3.52-.35,6.52-1.4,8.97-3.13,3.07,2.27,7.06,3.42,11.91,3.42,1.38,0,2.73-.1,4.02-.29,3.52-.35,6.52-1.4,8.97-3.13,3.07,2.27,7.06,3.42,11.91,3.42,1.38,0,2.73-.1,4.02-.29,5.26-.52,9.34-2.59,12.14-6.15,2.59-3.3,4-7.86,4.16-13.52v-2.94M114.11,99.67h-.01c-.12,4.16-1.02,7.33-2.67,9.44-1.62,2.06-4.05,3.22-7.44,3.54l-.2.02c-.98.15-2.01.23-3.07.23-3.72,0-6.48-.84-8.4-2.57v-5.17h-6.93v5.13c-1.55,1.33-3.62,2.11-6.3,2.36l-.2.02c-.98.15-2.01.23-3.07.23-4.28,0-7.29-1.11-9.21-3.4l-5.26-.05c-1.62,1.85-3.95,2.9-7.15,3.2l-.2.02c-.98.15-2.01.23-3.07.23-3.72,0-6.48-.84-8.4-2.57v-5.17h-6.93v5.13c-1.55,1.33-3.62,2.11-6.3,2.36l-.2.02c-.98.15-2.01.23-3.07.23-8.13,0-11.86-4.07-12.08-13.21h-.01v-42.43c0-10.84,1.82-20.92,5.12-28.39,3.79-8.58,9.25-13.21,16.23-13.75,4.12-.32,8.31,1.71,12.47,6.03,4.87,5.06,7.74,11.24,8.74,13.66.22.53.47,1.11.73,1.72.67,1.56,1.42,3.34,2.2,5.39.73,1.93,2.54,3.17,4.6,3.17s3.87-1.24,4.6-3.17c.78-2.05,1.53-3.82,2.2-5.39.26-.61.5-1.18.73-1.71,1.01-2.42,3.88-8.6,8.74-13.66,4.16-4.32,8.36-6.35,12.47-6.03,6.97.55,12.43,5.18,16.23,13.75,3.3,7.47,5.12,17.55,5.12,28.39v42.41Z"/>
  <g>
    <rect class="st0" x="121.07" y="52.8" width="6.93" height="6.93"/>
    <rect x="114.07" y="52.8" width="6.93" height="6.93"/>
  </g>
  <g>
    <rect class="st0" y="90.47" width="6.93" height="6.93" transform="translate(6.93 187.87) rotate(180)"/>
    <rect x="7" y="90.47" width="6.93" height="6.93" transform="translate(20.93 187.87) rotate(180)"/>
  </g>
</svg>